PathFileType	4	(X/Y/Z)	Patient4_TMGait_0pt2_01_right_21.trc.trc
DataRate	CameraRate	NumFrames	NumMarkers	Units	OrigDataRate	OrigDataStartFrame	OrigNumFrames
43.750000000000	43.750000000000	5	33	mm	43.750000000000	1	       141
Frame#	Time	Sacral			L.Shoulder			Chest			R.Shoulder			Neck			R.ASIS			L.ASIS			R.Thigh.Superior			R.Thigh.Lateral			R.Thigh.Inferior			R.Patella			L.Thigh.Superior			L.Thigh.Lateral			L.Thigh.Inferior			L.Patella			L.Shank.Superior			L.Shank.Lateral			L.Shank.Inferior			R.Shank.Superior			R.Shank.Lateral			R.Shank.Inferior			R.Heel			R.Midfoot.Superior			R.Midfoot.Lateral			R.Toe			L.Heel			L.Midfoot.Lateral			L.Midfoot.Superior			L.Toe			L.Elbow			L.Wrist			R.Elbow			R.Wrist			
		X1	Y1	Z1	X2	Y2	Z2	X3	Y3	Z3	X4	Y4	Z4	X5	Y5	Z5	X6	Y6	Z6	X7	Y7	Z7	X8	Y8	Z8	X9	Y9	Z9	X10	Y10	Z10	X11	Y11	Z11	X12	Y12	Z12	X13	Y13	Z13	X14	Y14	Z14	X15	Y15	Z15	X16	Y16	Z16	X17	Y17	Z17	X18	Y18	Z18	X19	Y19	Z19	X20	Y20	Z20	X21	Y21	Z21	X22	Y22	Z22	X23	Y23	Z23	X24	Y24	Z24	X25	Y25	Z25	X26	Y26	Z26	X27	Y27	Z27	X28	Y28	Z28	X29	Y29	Z29	X30	Y30	Z30	X31	Y31	Z31	X32	Y32	Z32	X33	Y33	Z33	

1	47.140000000000	716.568670941229	1004.284378183898	464.632603194991	874.538924719254	1428.623343554809	271.302523547216	998.528252162616	1354.093747127457	414.266961498655	945.946087584076	1426.653054484445	598.843408115622	880.514344451473	1489.058938579047	430.077995906691	952.792096436546	926.331808827747	557.595424291082	915.556919901012	957.335301291003	288.327473318101	970.265855239928	716.884139702681	537.625914295334	884.179126421390	617.431298246831	612.352091650519	949.682336499650	549.747577616933	532.534745153339	932.440678919174	445.555717017010	555.293379107076	980.434922292900	753.620886124111	337.537062652932	908.606342043515	621.915362877000	282.075756095950	995.572358526732	555.972599161543	355.268906063285	1001.339024388351	480.849489994600	365.556922925051	963.586764647152	407.139030229793	358.822106845905	865.780091676068	302.646824573364	303.048536312931	894.660728938056	188.359899837921	378.627940757131	854.378123873428	384.508794220560	574.068459989925	741.490690908738	348.815638492114	650.097522262656	718.619580146986	238.929825964076	605.609792926618	510.925899463165	178.546545347920	606.761216673486	681.488856193177	116.784312909290	628.321056465912	576.713220213341	117.556696863980	671.709835132035	747.198157020629	32.110428283371	643.541954777845	746.466802561284	42.011311503525	406.170883188504	826.814538205285	38.458690551794	332.736358821351	909.887861585828	96.361852646045	366.624878421571	1038.141958335561	39.257590231962	346.740054750839	796.215978366290	1084.160677438474	157.869055003413	825.346299380192	822.538518584860	170.038025091292	1067.826844471764	1084.368909562710	673.768068755122	1280.761407282375	945.501809079724	609.585250789833	
2	47.162857142857	716.432397233636	1001.287908738510	459.317434804037	877.198897308018	1427.493477056219	270.403586982974	998.893428430438	1351.717294484650	414.562899628611	943.778472450439	1422.279114020929	599.205951335655	881.025284485564	1486.617482282877	430.015529013115	952.089500134669	924.428540018012	554.424830711874	917.222415289101	955.310465832265	284.966216566246	975.850015599495	716.876994439064	533.255669085809	893.978006484189	615.891583187512	608.491160372566	960.807989870766	549.580534965250	527.618148965753	945.674242794112	443.926359153199	551.405086234173	982.467630208498	751.802455085581	335.415438663683	911.437346428099	619.453817499958	280.638343792494	998.011157787544	554.108554240151	355.135929858374	1003.732013373476	478.386036672685	365.729661304651	964.645909980974	404.726392921650	358.833312409847	865.393789088593	301.723750814344	302.936458776082	892.003370136192	187.261495707616	378.742624751578	865.814473915595	383.856491060153	570.515347294884	751.548916598328	352.819958535295	646.146401816205	725.627619159920	243.327060164215	603.146246704239	517.936785069804	192.719733974910	602.886188057614	683.962971276681	121.906477377203	627.323645431835	579.276328052493	128.902780273702	669.104856191337	743.274659485824	30.436868692469	644.116382979136	742.017115898930	42.174326246398	406.158449789981	822.361323746311	38.527837268470	332.729098091746	905.481224675917	96.273971943043	366.733808135724	1033.645713520112	39.169502991357	346.711375714822	809.706779742835	1082.225730094353	152.627532869616	848.989544144516	822.421573780509	163.088889911139	1049.684886716004	1075.516275527806	676.592903464523	1244.994623940417	916.453719998501	624.471811169804	
3	47.185714285714	716.176343490925	998.111169757712	453.959594907620	879.990443857789	1426.162557395079	269.588621722420	999.298878468949	1349.085083446222	414.979473166285	941.510935784651	1417.609228865481	599.663230959262	881.621725380348	1483.947375220740	430.039767778962	951.295480510731	922.324087766281	551.274817302469	918.865601001221	953.070223614292	281.600421833846	981.571063991762	716.927867482389	528.702105286820	904.131275002982	614.328509237389	604.405010874439	972.322552854734	549.562512268583	522.396920399367	959.447849257859	442.381749401281	547.153074437550	984.553605910325	749.823719002252	333.334179882222	914.339454277470	616.810466482537	279.286003989692	1000.516251326118	552.106001126327	355.153963604723	1006.188309042511	475.782284080891	366.112642452520	965.719195682531	402.166815006975	358.994648795112	864.985965300084	300.734438002253	302.906568830456	889.214990806045	186.076669856246	378.909854413640	877.701734870285	383.247268328220	566.600071944661	761.884143285482	356.972299234535	641.602936694452	732.964413096145	247.820353483091	600.150748867471	525.189561643252	206.801956293693	598.029791070115	686.790572145312	127.333718999362	625.901331985049	582.092803073452	140.582984070814	665.841642064829	739.631840550966	29.059858595410	644.825018414974	737.364971135896	42.311731097667	406.131876581864	817.710267268483	38.574384413362	332.713870583724	900.870090836371	96.169229210548	366.855332660925	1028.954217644230	39.084819404175	346.681801796170	823.948121664611	1080.339933193420	147.104565386626	874.147009186571	822.687156630633	155.865419804803	1030.079281438871	1066.612414685857	679.775055218288	1206.737185609761	887.709680553759	639.734918116684	
4	47.208571428571	715.775836253786	994.872412084729	448.747599413926	882.890906566366	1424.656359025971	268.931177423429	999.746791716171	1346.260526026349	415.578108535921	939.171517395348	1412.790363244013	600.239506103799	882.315952271627	1481.124172879463	430.189364227110	950.372322629767	920.080746169273	548.318262604974	920.439463116275	950.675545347035	278.400048428665	987.210304917453	717.120237266303	524.127172420908	914.319770968482	612.861094600790	600.215261037456	983.866912205915	549.816539611891	517.023691103539	973.388203464985	441.102922458627	542.628047928762	986.606412833746	747.726330639082	331.421389458056	917.185763599995	614.062942311378	278.108192951927	1002.942197041171	550.012227691363	355.385188196820	1008.556493334589	473.116513172197	366.761577539939	966.703245957989	399.539235935737	359.347274348731	864.515476164396	299.710335742084	302.981422901283	886.327670091244	184.838979448194	379.135226983737	889.759244022902	382.767858601682	562.388996318465	772.237270848009	361.081787198300	636.477942070402	740.600353126554	252.169125633029	596.569142159022	532.639176731574	219.849638394218	592.068037471851	690.252813725818	132.850794686519	623.952778681536	585.385990053852	151.963393942484	661.827746281025	736.987715921664	28.163762489589	645.653688527983	732.605427611390	42.411773566675	406.085175573904	812.959414962782	38.591493134254	332.686240222187	896.148349840014	96.048888098996	366.984581708354	1024.167535207487	39.007758623149	346.652163727765	838.701402772637	1078.680242378240	141.424373888761	900.478900433299	823.626440034361	148.582640726986	1009.199443364717	1058.126496688617	683.269113249270	1166.532499565522	860.705976989831	654.831989916349	
5	47.231428571429	715.218856033340	991.717193949414	443.822406406561	885.901711668302	1423.038636017129	268.493649722080	1000.237539228683	1343.345852982074	416.424912737921	936.764854608304	1408.004934047479	600.954169945907	883.117120865693	1478.258006364341	430.491086639181	949.270614410238	917.796076509563	545.714780222280	921.928231351221	948.219989310260	275.524811618828	992.557215089441	717.563367395986	519.704871056949	924.232348722483	611.627961686365	596.053627741960	995.109381877740	550.480512587314	511.679294565125	987.159182302924	440.291367008645	537.961513524018	988.539913453073	745.563599163258	329.796331783313	919.839136447001	611.309277985730	277.173872707300	1005.116274485540	547.881995924963	355.875964764185	1010.651393129070	470.475154566490	367.707500097898	967.461585088410	396.934262746570	359.911610615840	863.910530429176	298.688478923784	303.168309294542	883.345854714580	183.589712879670	379.416156350893	901.764005892993	382.513327290361	557.983002545435	782.425278527529	364.936801369423	630.842877835188	748.598960634402	256.109520534353	592.402574462390	540.345557257483	230.869595378044	584.985796645038	694.741096806792	138.189629049598	621.415355510661	589.494217621662	162.318611902846	657.039133076529	736.231852350886	27.903282012116	646.561301423830	727.807915859684	42.465862565995	406.012306671375	808.181368953421	38.574195780863	332.641604447538	891.385024451882	95.916002974394	367.113997067679	1019.359605773855	38.941780529410	346.623418912672	853.786930937216	1077.444421398830	135.700978586338	927.730939458684	825.570883138464	141.439309438281	987.221377408693	1050.533031708546	686.988663467970	1124.884916048350	836.671721710885	669.263738330527	
